<svg xmlns="http://www.w3.org/2000/svg" xmlns:xlink="http://www.w3.org/1999/xlink" width="317" height="317" viewBox="0 0 317 317">
  <defs>
    <clipPath id="clip-path">
      <circle id="Ellipse_25" data-name="Ellipse 25" cx="144.5" cy="144.5" r="144.5" transform="translate(13.689 14)" fill="#fff" stroke="#293241" stroke-width="4"/>
    </clipPath>
  </defs>
  <g id="Group_33" data-name="Group 33" transform="translate(0.311)">
    <circle id="Ellipse_17" data-name="Ellipse 17" cx="158.5" cy="158.5" r="158.5" transform="translate(-0.311)" fill="#fff"/>
    <g id="Mask_Group_1" data-name="Mask Group 1" clip-path="url(#clip-path)">
      <g id="executive-search" transform="translate(13.688 14)">
        <path id="Path_4" data-name="Path 4" d="M114.322,82.164A16.345,16.345,0,1,1,97.976,98.51,16.346,16.346,0,0,1,114.322,82.164Zm26.534,44.575a6.5,6.5,0,0,0-2.666-3.359,45.23,45.23,0,0,0-18.4-5.52l-4.9,6.912,4.943,34.574-5.517,6.436-5.517-6.436,4.946-34.574-4.9-6.912a45.239,45.239,0,0,0-18.4,5.522,6.525,6.525,0,0,0-2.657,3.357s-8.22,25.945-8.2,26.617l.583,22.734a6.009,6.009,0,0,0,6.007,5.867c.048,0,.1,0,.146,0a6.008,6.008,0,0,0,5.865-6.151l-.56-21.721,5.033-15.452c1.2,0,1.456,1.45,1.456,2.634l.032,80.033a7.413,7.413,0,0,0,14.825,0v-42.78h2.691V221.3a7.413,7.413,0,0,0,14.825,0l.034-80.033c0-1.187.258-2.641,1.456-2.641l5.037,15.459-.558,21.721a6.006,6.006,0,0,0,5.862,6.151c.048,0,.1,0,.146,0a6.015,6.015,0,0,0,6.007-5.867l.583-22.734C149.076,152.681,140.857,126.739,140.857,126.739ZM16.642,86.035A14.793,14.793,0,1,0,31.436,71.242,14.793,14.793,0,0,0,16.642,86.035ZM55.45,111.582a5.887,5.887,0,0,0-2.412-3.041,40.887,40.887,0,0,0-16.648-4.994L31.955,109.8l4.475,31.29-4.991,5.824-4.994-5.824,4.475-31.29-4.436-6.253a40.893,40.893,0,0,0-16.65,5,5.91,5.91,0,0,0-2.4,3.036S-.008,135.059.006,135.665l.528,20.576a5.436,5.436,0,0,0,5.435,5.307H6.1a5.437,5.437,0,0,0,5.307-5.57L10.9,136.324l4.555-13.984c1.084,0,1.319,1.31,1.319,2.385l.03,72.426a6.709,6.709,0,0,0,13.417,0V158.438h2.435v38.714a6.71,6.71,0,0,0,13.419,0l.03-72.426c0-1.075.236-2.392,1.319-2.392,0,0,4.559,13.991,4.559,13.991l-.508,19.654a5.442,5.442,0,0,0,5.307,5.57h.133a5.436,5.436,0,0,0,5.435-5.307l.528-20.576C62.888,135.057,55.45,111.582,55.45,111.582ZM16.208,48.718,22.8,55.31l8.638-8.641,8.643,8.643,6.594-6.594L38.03,40.077l8.641-8.641-6.59-6.587-8.638,8.636L22.8,24.847l-6.6,6.592,8.641,8.641ZM182.413,86.035a14.793,14.793,0,1,0,14.8-14.793A14.793,14.793,0,0,0,182.413,86.035Zm38.808,25.547a5.9,5.9,0,0,0-2.412-3.041,40.887,40.887,0,0,0-16.648-4.994l-4.436,6.253,4.475,31.29-4.991,5.824-4.994-5.824,4.472-31.29-4.436-6.253a40.916,40.916,0,0,0-16.65,5,5.91,5.91,0,0,0-2.4,3.036s-7.438,23.477-7.424,24.083l.526,20.576a5.438,5.438,0,0,0,5.437,5.307h.133a5.436,5.436,0,0,0,5.307-5.57l-.508-19.654,4.555-13.984c1.084,0,1.317,1.31,1.317,2.385l.03,72.426a6.71,6.71,0,0,0,13.419,0V158.438h2.433v38.714a6.71,6.71,0,0,0,13.419,0l.03-72.426c0-1.075.238-2.392,1.319-2.392,0,0,4.559,13.991,4.559,13.991l-.508,19.654a5.442,5.442,0,0,0,5.307,5.57h.133a5.438,5.438,0,0,0,5.435-5.307l.528-20.576C228.661,135.057,221.221,111.582,221.221,111.582ZM181.979,48.718l6.59,6.592,8.641-8.641,8.641,8.643,6.594-6.594L203.8,40.077l8.638-8.641-6.59-6.587-8.638,8.636-8.641-8.638-6.594,6.594,8.641,8.641ZM167.236,14.633,152.289,0,111.4,41.538,94.217,24.721,79.584,39.666l32.123,31.453Z" transform="translate(30.176 30.177)" fill="#545454"/>
      </g>
    </g>
    <g id="Ellipse_21" data-name="Ellipse 21" transform="translate(13.689 14)" fill="none" stroke="#293241" stroke-width="4">
      <circle cx="144.5" cy="144.5" r="144.5" stroke="none"/>
      <circle cx="144.5" cy="144.5" r="142.5" fill="none"/>
    </g>
  </g>
</svg>
