<svg xmlns="http://www.w3.org/2000/svg" xmlns:xlink="http://www.w3.org/1999/xlink" width="317" height="317" viewBox="0 0 317 317">
  <defs>
    <clipPath id="clip-path">
      <ellipse id="Ellipse_27" data-name="Ellipse 27" cx="145" cy="144.5" rx="145" ry="144.5" transform="translate(13.118 14)" fill="#fff" stroke="#293241" stroke-width="4"/>
    </clipPath>
  </defs>
  <g id="Group_36" data-name="Group 36" transform="translate(-0.119)">
    <circle id="Ellipse_20" data-name="Ellipse 20" cx="158.5" cy="158.5" r="158.5" transform="translate(0.119)" fill="#fff"/>
    <g id="Mask_Group_3" data-name="Mask Group 3" clip-path="url(#clip-path)">
      <path id="it-contracting" d="M161.981,152.97a26.851,26.851,0,0,0-7.106-15.3c2.575-7.747,9.108-13.1,15.761-13.1a23.054,23.054,0,0,0,10.609,3.082,23.084,23.084,0,0,0,10.611-3.082c5.3,0,10.576,3.364,13.751,8.659H184.119a2.76,2.76,0,0,0-2.635,2.277l-2.191,17.463H161.981Zm20.3-30.079a14.432,14.432,0,1,0-14.515-14.429A14.423,14.423,0,0,0,182.278,122.891Zm35.14,13.448-2.048,16.633H182.5l2.045-16.633Zm-13.968,8.047a2.708,2.708,0,0,0-2.744-2.746,2.78,2.78,0,0,0-2.832,2.746,2.851,2.851,0,0,0,2.832,2.832A2.782,2.782,0,0,0,203.45,144.386Zm-41.26,11.693v9.32h31.075v18.645h-9.323v24.945h49.8V165.4h9.32v-9.32Zm-21.8-22.105a25.161,25.161,0,0,1-11.761,3.462,25.288,25.288,0,0,1-11.844-3.462c-5.833,0-11.733,3.8-15.287,9.676h24.135a2.765,2.765,0,0,1,2.638,2.277l2.433,19.475h28.379v-9.32C159.084,143.65,149.761,133.974,140.393,133.974Zm-12.876-1.8a16.044,16.044,0,1,0-16.088-16.018A16,16,0,0,0,127.517,132.178ZM90.325,165.4l-2.37-18.643H125.21l2.373,18.643Zm13.559-9.32a3.107,3.107,0,1,0,3.1-3.109A3.079,3.079,0,0,0,103.884,156.079ZM59.56,168.508v12.429h9.32v46.694H180.833V180.938h9.323V168.508ZM91.411,82.418V116.6A10.323,10.323,0,0,1,81.088,126.84H77.7v13.7l-20.557-13.7h-30.8A10.3,10.3,0,0,1,16.111,116.6V82.418A10.321,10.321,0,0,1,26.349,72.094H81.09A10.336,10.336,0,0,1,91.411,82.418ZM31.6,99.823l8.859-4.2A2.964,2.964,0,0,0,41.8,94.7a1.94,1.94,0,0,0,.461-1.314A1.886,1.886,0,0,0,41.668,92a1.685,1.685,0,0,0-1.4-.6,1.3,1.3,0,0,0-.658.149,5.25,5.25,0,0,0-.941.411L26.488,97.6c-1.326.63-2,1.362-2,2.345,0,.893.656,1.611,1.871,2.229l12.316,5.6c.3.184.646.252.878.376a3.812,3.812,0,0,0,.716.068,1.946,1.946,0,0,0,1.4-.512,1.972,1.972,0,0,0,.593-1.47,2.229,2.229,0,0,0-.459-1.3,5.329,5.329,0,0,0-1.342-.91ZM59.532,89.131a1.794,1.794,0,0,0-.8-1.528,2.207,2.207,0,0,0-1.566-.525,1.391,1.391,0,0,0-1.17.489,4.308,4.308,0,0,0-.883,1.392l-8.9,19.17a3.259,3.259,0,0,0-.451,1.574,2.067,2.067,0,0,0,.709,1.526,2.643,2.643,0,0,0,1.571.519,2.076,2.076,0,0,0,1.253-.484,11.626,11.626,0,0,0,.878-1.455l8.881-19.026c.119-.366.277-.724.323-.946A1.455,1.455,0,0,0,59.532,89.131ZM80.366,99.944c0-.986-.668-1.715-2.156-2.391L66.2,91.955a5.131,5.131,0,0,0-.933-.4,5.022,5.022,0,0,0-.772-.154,1.877,1.877,0,0,0-1.382.6,1.849,1.849,0,0,0-.5,1.379,1.593,1.593,0,0,0,.464,1.314,2.964,2.964,0,0,0,1.326.918l8.866,4.2-8.864,4.2a4.482,4.482,0,0,0-1.342.941,1.686,1.686,0,0,0-.451,1.268,1.936,1.936,0,0,0,.5,1.47,2.163,2.163,0,0,0,1.379.512,4.265,4.265,0,0,0,.807-.068c.235-.124.5-.2.873-.376l12.225-5.6C79.711,101.563,80.366,100.841,80.366,99.944Z" transform="translate(33.717 7.394)" fill="#545454"/>
    </g>
    <g id="Ellipse_24" data-name="Ellipse 24" transform="translate(13.119 14)" fill="none" stroke="#293241" stroke-width="4">
      <ellipse cx="145" cy="144.5" rx="145" ry="144.5" stroke="none"/>
      <ellipse cx="145" cy="144.5" rx="143" ry="142.5" fill="none"/>
    </g>
  </g>
</svg>
