<svg xmlns="http://www.w3.org/2000/svg" xmlns:xlink="http://www.w3.org/1999/xlink" width="317" height="317" viewBox="0 0 317 317">
  <defs>
    <clipPath id="clip-path">
      <ellipse id="Ellipse_26" data-name="Ellipse 26" cx="145" cy="144.5" rx="145" ry="144.5" transform="translate(13.085 14)" fill="#fff" stroke="#293241" stroke-width="4"/>
    </clipPath>
  </defs>
  <g id="Group_34" data-name="Group 34" transform="translate(-0.085)">
    <circle id="Ellipse_18" data-name="Ellipse 18" cx="158.5" cy="158.5" r="158.5" transform="translate(0.085)" fill="#fff"/>
    <g id="Mask_Group_2" data-name="Mask Group 2" clip-path="url(#clip-path)">
      <g id="recruitment" transform="translate(-11.658 -2.895)">
        <path id="Path_5" data-name="Path 5" d="M221.921,188.721a44.74,44.74,0,1,0,44.74,44.74A44.74,44.74,0,0,0,221.921,188.721Zm31,37.012-15.4,13.829,4.173,20.75a1.084,1.084,0,0,1-1.607,1.151L221.921,250.9l-18.169,10.563a1.084,1.084,0,0,1-1.607-1.151l4.168-20.75-15.4-13.829a1.083,1.083,0,0,1,.587-1.881l20.777-2.642,8.66-18.736a1.084,1.084,0,0,1,1.967,0l8.66,18.736,20.773,2.642a1.083,1.083,0,0,1,.9.752A1.069,1.069,0,0,1,252.926,225.733Z" transform="translate(-1.758 -6.459)" fill="#545454"/>
        <path id="Path_6" data-name="Path 6" d="M109.24,51.368c0-29.375,8-34.473,26.925-34.473s27.142,5.253,27.13,34.473c-.007,20.186-10.2,39.166-27.322,39.166C119.235,90.534,109.24,76.331,109.24,51.368Z" transform="translate(14.3 34.153)" fill="#545454"/>
        <path id="Path_7" data-name="Path 7" d="M135.482,218.674a56.321,56.321,0,0,1,56.32-56.32c1.711,0,3.392.106,5.063.256l.032-16.878c-1.477-11.8-12.345-19.316-24.241-19.328l-19.821-.254L131.22,165.777l-2.862-20.045,3.345-6.69c3.631-7.264-1.366-12.892-4.775-12.892H115.1c-3.407,0-8.406,5.63-4.775,12.892l3.345,6.69L110.8,165.777l-21.613-39.63-21.376.131C55.6,126.266,46.237,133.57,45.13,145.73v68.542c19.109,19.2,48.26,27.472,77.487,27.472a151.465,151.465,0,0,0,17.376-.966A56.148,56.148,0,0,1,135.482,218.674Z" transform="translate(29.453 8.331)" fill="#545454"/>
      </g>
    </g>
    <g id="Ellipse_22" data-name="Ellipse 22" transform="translate(13.085 14)" fill="none" stroke="#293241" stroke-width="4">
      <ellipse cx="145" cy="144.5" rx="145" ry="144.5" stroke="none"/>
      <ellipse cx="145" cy="144.5" rx="143" ry="142.5" fill="none"/>
    </g>
  </g>
</svg>
