<?xml version="1.0" standalone="no"?>
<!DOCTYPE svg PUBLIC "-//W3C//DTD SVG 20010904//EN"
 "http://www.w3.org/TR/2001/REC-SVG-20010904/DTD/svg10.dtd">
<svg version="1.0" xmlns="http://www.w3.org/2000/svg"
 width="400.000000pt" height="400.000000pt" viewBox="0 0 400.000000 400.000000"
 preserveAspectRatio="xMidYMid meet">
<metadata>
Created by potrace 1.14, written by Peter Selinger 2001-2017
</metadata>
<g transform="translate(0.000000,400.000000) scale(0.100000,-0.100000)"
fill="#000000" stroke="none">
<path d="M742 3260 c-45 -28 -60 -68 -78 -217 -8 -71 -22 -182 -29 -248 -19
-155 -25 -184 -39 -193 -6 -4 -60 -9 -119 -12 l-109 -5 -34 -37 c-31 -34 -34
-43 -34 -99 0 -112 42 -149 169 -149 65 0 83 -3 88 -16 6 -15 -7 -154 -29
-304 -14 -103 -24 -110 -144 -110 -93 0 -95 0 -131 -34 -34 -31 -37 -39 -40
-97 -7 -112 45 -159 175 -159 95 0 97 -3 78 -132 -43 -295 -58 -416 -53 -450
11 -79 62 -118 157 -118 43 0 55 5 85 33 39 36 40 39 85 392 11 88 23 179 26
202 9 72 11 73 225 73 147 0 191 -3 195 -13 4 -12 -6 -109 -41 -382 -19 -151
-19 -198 1 -236 29 -57 140 -87 203 -55 59 31 65 57 112 451 12 105 28 200 35
211 11 19 24 22 102 26 99 5 130 18 162 71 37 61 19 155 -38 196 -22 16 -45
21 -89 21 -95 0 -103 5 -103 59 0 25 9 113 20 196 14 116 23 152 36 162 11 8
48 13 94 13 126 0 187 52 176 150 -10 98 -47 133 -148 138 -39 3 -72 10 -78
17 -8 10 -4 69 16 217 37 285 40 347 20 387 -33 63 -148 91 -213 51 -54 -33
-55 -36 -98 -390 -25 -202 -33 -250 -46 -266 -10 -12 -46 -14 -203 -12 l-191
3 1 65 c1 36 9 115 18 175 9 61 21 160 28 222 11 101 10 116 -5 148 -32 67
-147 96 -215 55z m525 -976 c6 -15 -7 -160 -27 -314 -13 -99 -16 -100 -224
-100 -127 0 -177 3 -190 13 -18 13 -18 21 7 202 20 150 29 192 43 202 13 10
66 13 201 13 160 0 184 -2 190 -16z"/>
<path d="M2745 3256 c-221 -37 -398 -132 -502 -271 -100 -132 -138 -288 -115
-468 29 -225 135 -363 367 -479 39 -20 181 -77 317 -127 289 -107 345 -131
405 -172 119 -82 143 -209 61 -319 -52 -71 -190 -119 -339 -120 -167 0 -332
55 -464 155 -60 45 -107 65 -155 65 -93 -1 -221 -137 -220 -235 1 -117 233
-293 469 -356 307 -81 614 -62 851 54 234 114 361 312 363 566 3 278 -133 474
-433 626 -30 15 -138 59 -240 97 -267 101 -358 137 -411 163 -153 78 -157 265
-9 356 71 44 150 61 272 60 91 0 120 -4 195 -30 48 -16 125 -50 169 -74 96
-54 135 -63 195 -47 61 16 140 98 159 164 15 55 4 121 -29 166 -44 62 -243
169 -386 208 -75 20 -119 24 -265 28 -116 2 -202 -1 -255 -10z"/>
</g>
</svg>
