<svg xmlns="http://www.w3.org/2000/svg" viewBox="0 0 144.09 21.83"><defs><style>.cls-1{fill:#4949f2;}</style></defs><g id="Layer_2" data-name="Layer 2"><g id="Layer_2-2" data-name="Layer 2"><path class="cls-1" d="M3.29,6.26c.25,0,.37-.21.4-.49l.59-4.72A1.13,1.13,0,0,1,5.52,0c.62,0,1.4.34,1.4,1.12a4.24,4.24,0,0,1,0,.49L6.36,5.74a3.13,3.13,0,0,0,0,.34q0,.18.27.18H9.77c.24,0,.37-.21.4-.49l.59-4.72A1.13,1.13,0,0,1,12,0c.62,0,1.39.34,1.39,1.12,0,.21,0,.49,0,.49l-.52,4.13a3.13,3.13,0,0,0,0,.34q0,.18.27.18h.69A1.2,1.2,0,0,1,15,7.6a1.19,1.19,0,0,1-1.27,1.33h-1c-.24,0-.37.22-.4.5L12,12.25a3.13,3.13,0,0,0,0,.34c0,.12.09.18.28.18H13a1.21,1.21,0,0,1,1.27,1.34A1.19,1.19,0,0,1,13,15.44H12c-.25,0-.37.22-.4.5L11,20.77a1.14,1.14,0,0,1-1.24,1.06c-.62,0-1.4-.34-1.4-1.12,0-.22,0-.49,0-.49L8.9,16s0-.19,0-.34-.09-.19-.28-.19H5.49c-.25,0-.37.22-.41.5l-.62,4.83a1.13,1.13,0,0,1-1.24,1.06c-.62,0-1.39-.34-1.39-1.12,0-.22,0-.49,0-.49L2.42,16s0-.19,0-.34-.09-.19-.28-.19h-.9A1.19,1.19,0,0,1,0,14.11a1.21,1.21,0,0,1,1.27-1.34H2.45c.25,0,.37-.21.4-.49l.34-2.82s0-.19,0-.34S3.13,8.93,3,8.93h-.9A1.19,1.19,0,0,1,.78,7.6,1.2,1.2,0,0,1,2.05,6.26Zm6.38,3.2a2.6,2.6,0,0,0,0-.34c0-.13-.1-.19-.28-.19H6.26c-.24,0-.37.22-.4.5l-.37,2.82a3.13,3.13,0,0,0,0,.34c0,.12.09.18.28.18H8.93c.25,0,.37-.21.4-.49Z"/><path class="cls-1" d="M25,3.84c-2,0-3.41.87-3.41,2.21s1,1.7,2.66,2.29l2.89,1.09c3.44,1.3,5.42,3,5.42,6.2,0,3.84-3,6.2-7.56,6.2-3.32,0-5.71-1-7.23-2.54A1.81,1.81,0,0,1,17.21,18a2.4,2.4,0,0,1,2.07-2,2.25,2.25,0,0,1,1.37.62A6.62,6.62,0,0,0,25,18c2,0,3.38-.86,3.38-2.35,0-1.18-1-1.8-2.54-2.39l-2.92-1.09c-3.47-1.27-5.52-2.63-5.52-6.1,0-3.63,2.92-6,7.6-6a9.29,9.29,0,0,1,5.89,1.77,2,2,0,0,1,.81,1.45,2.25,2.25,0,0,1-2,2.08,1.85,1.85,0,0,1-1.11-.4A6.43,6.43,0,0,0,25,3.84Z"/><path d="M36.86,2.33C38.57.4,40.52,0,43.12,0s4.56.4,6.27,2.33c1.24,1.42,1.83,4.4,1.83,8.58s-.59,7.17-1.83,8.59c-1.71,1.93-3.66,2.33-6.27,2.33s-4.55-.4-6.26-2.33C35.62,18.08,35,15.1,35,10.91S35.62,3.75,36.86,2.33Zm9.55,3.13a3.28,3.28,0,0,0-3.29-1.62,3.24,3.24,0,0,0-3.28,1.62c-.59,1.18-.62,3-.62,5.45s0,4.28.62,5.46a3.29,3.29,0,0,0,3.28,1.55,3.32,3.32,0,0,0,3.29-1.55c.62-1.18.62-3,.62-5.46S47,6.64,46.41,5.46Z"/><path d="M66.34,1.71c0-1.37,1.09-1.71,2-1.71s2,.34,2,1.71V14.14c0,4.59-2.6,7.69-7.87,7.69s-7.88-3.1-7.88-7.69V1.71c0-1.37,1.09-1.71,2-1.71s2,.34,2,1.71V14a3.85,3.85,0,1,0,7.69,0Z"/><path d="M90.27,18.85a2.21,2.21,0,0,1,.35,1.06,2.24,2.24,0,0,1-2.2,1.92,1.77,1.77,0,0,1-1.56-1l-4.12-7.14c-.16-.28-.25-.28-.5-.28H79.11c-.21,0-.28.07-.28.28v6.45c0,1.37-1,1.71-2,1.71s-2-.34-2-1.71V2A1.65,1.65,0,0,1,76.57.12h7.6c3.53,0,6.38,2.14,6.38,6.64,0,3.5-1.45,5.08-3.44,6.26a.22.22,0,0,0-.15.22.31.31,0,0,0,0,.12Zm-6.1-9.33c1.24,0,2.2-.93,2.2-2.76S85.44,4,84,4h-4.9c-.21,0-.28.06-.28.28v5c0,.22.07.28.28.28Z"/><path d="M101.18,21.83c-2.07,0-4.18-.34-5.85-2.33-1.43-1.7-1.83-4.93-1.83-8.59s.49-7,1.83-8.58C97,.37,98.89,0,101.18,0a8.52,8.52,0,0,1,5.46,1.67c.56.47,1.06.87,1.06,1.71a2.26,2.26,0,0,1-2,2,1.54,1.54,0,0,1-1-.32,4.65,4.65,0,0,0-3.35-1.17,3.13,3.13,0,0,0-3.07,1.58c-.56,1.21-.59,3-.59,5.42s0,4.28.62,5.46a3,3,0,0,0,3,1.55,5.33,5.33,0,0,0,3.54-1.27,1.78,1.78,0,0,1,1.27-.62,2.4,2.4,0,0,1,2.1,2,1.9,1.9,0,0,1-.58,1.3C106.92,20.22,105,21.83,101.18,21.83Z"/><path d="M124.19.12c1.27,0,1.73,1,1.73,2a1.72,1.72,0,0,1-1.73,2h-7.88c-.22,0-.28.06-.28.28v4c0,.22.06.28.28.28H123a1.72,1.72,0,0,1,1.74,2,1.74,1.74,0,0,1-1.74,2h-6.7c-.22,0-.28.06-.28.28v4.71c0,.22.06.28.28.28h8.19c1.27,0,1.73,1,1.73,2a1.7,1.7,0,0,1-1.73,1.92H113.77A1.65,1.65,0,0,1,112,19.87V2A1.65,1.65,0,0,1,113.77.12Z"/><path d="M136.52,3.84c-2,0-3.41.87-3.41,2.21s1,1.7,2.67,2.29l2.88,1.09c3.44,1.3,5.43,3,5.43,6.2,0,3.84-3,6.2-7.57,6.2-3.31,0-5.7-1-7.22-2.54a1.81,1.81,0,0,1-.59-1.34,2.4,2.4,0,0,1,2.08-2,2.2,2.2,0,0,1,1.36.62A6.66,6.66,0,0,0,136.52,18c2,0,3.38-.86,3.38-2.35,0-1.18-1-1.8-2.54-2.39l-2.91-1.09c-3.48-1.27-5.52-2.63-5.52-6.1,0-3.63,2.91-6,7.59-6a9.3,9.3,0,0,1,5.9,1.77,2,2,0,0,1,.8,1.45,2.24,2.24,0,0,1-2,2.08,1.89,1.89,0,0,1-1.12-.4A6.43,6.43,0,0,0,136.52,3.84Z"/></g></g></svg>