<svg xmlns="http://www.w3.org/2000/svg" viewBox="0 0 145.38 24.29"><defs><style>.cls-1{fill:#2794B4;}</style></defs><g id="Layer_2" data-name="Layer 2"><g id="Layer_3" data-name="Layer 3"><path class="cls-1" d="M27.85,20.82c2.64,0,4.44-1.27,4.44-3.6,0-1.8-1.21-2.79-3.23-3.56L25.9,12.45C23,11.33,21,10,21,6.86c0-3.31,2.79-5.58,6.82-5.58a8.61,8.61,0,0,1,5.52,1.65,1.23,1.23,0,0,1,.5.86A1.31,1.31,0,0,1,32.72,5,1.2,1.2,0,0,1,32,4.76a6.7,6.7,0,0,0-4.13-1.18c-2.54,0-4.28,1.33-4.28,3.28,0,1.74,1.28,2.55,3.14,3.26l3.16,1.21c3.13,1.21,5,3,5,5.89,0,3.63-3.13,5.89-7,5.89a9.26,9.26,0,0,1-6.66-2.51,1.21,1.21,0,0,1-.41-.84A1.39,1.39,0,0,1,22,18.55a1,1,0,0,1,.78.35A7.36,7.36,0,0,0,27.85,20.82Z"/><path d="M52.13,20.23c-1.34,2-3.47,2.88-6.36,2.88s-5-.87-6.32-2.88S38,15.48,38,12.2s.15-6.17,1.43-8c1.36-2,3.47-2.89,6.32-2.89s5,.9,6.36,2.89,1.42,4.74,1.42,8S53.4,18.34,52.13,20.23Zm-10.7-1.46c.78,1.49,2.29,2.05,4.34,2.05s3.63-.56,4.37-2.05.87-4,.87-6.57,0-4.93-.87-6.54-2.29-2.08-4.37-2.08-3.53.53-4.34,2.08-.87,3.93-.87,6.54S40.59,17.16,41.43,18.77Z"/><path d="M70.32,15.55V2.28c0-.81.66-1,1.24-1s1.24.19,1.24,1V15.36c0,4.65-2.48,7.75-7.62,7.75s-7.63-3.1-7.63-7.75V2.28c0-.81.65-1,1.24-1s1.24.19,1.24,1V15.55c0,3.1,1.58,5.27,5.15,5.27S70.32,18.65,70.32,15.55Z"/><path d="M93,21.34a1.24,1.24,0,0,1,.18.59c0,.62-.81,1.18-1.43,1.18a.94.94,0,0,1-.83-.53l-5-8.37c-.16-.28-.25-.28-.5-.28H80.68c-.22,0-.28.07-.28.28V22c0,.86-.62,1.08-1.24,1.08s-1.24-.22-1.24-1.08V2.4c0-.74.56-1,1.14-1h8.1c3.28,0,6,2,6,6.26,0,3.32-1.58,5.43-4.4,6.08a.19.19,0,0,0-.16.21.33.33,0,0,0,0,.13Zm-6-9.7c2.3,0,3.63-1.3,3.63-4s-1.37-4-3.44-4H80.68c-.22,0-.28.06-.28.28v7.38c0,.22.06.28.28.28Z"/><path d="M103.93,23.11a6.78,6.78,0,0,1-6-2.91c-1.11-1.65-1.42-4.19-1.42-8s.31-6.36,1.42-8a6.78,6.78,0,0,1,6-2.89,7.87,7.87,0,0,1,5.3,1.59c.43.37.84.71.84,1.14a1.38,1.38,0,0,1-1.18,1.21,1.46,1.46,0,0,1-.75-.34,5.82,5.82,0,0,0-4.06-1.3c-1.52,0-3.19.28-4.12,2.08-.78,1.48-.87,3.78-.87,6.54s.06,5.05.87,6.57c.9,1.71,2.45,2.05,4.06,2.05a6.79,6.79,0,0,0,4.62-1.61c.25-.25.43-.41.71-.41A1.44,1.44,0,0,1,110.62,20a1.25,1.25,0,0,1-.4.81C109.54,21.56,107.74,23.11,103.93,23.11Z"/><path d="M117,20.41c0,.22.06.28.28.28h9.86a1,1,0,0,1,1,1.15,1,1,0,0,1-1,1.15H115.61c-.59,0-1.14-.25-1.14-1V2.4c0-.74.55-1,1.14-1h11.17a1,1,0,0,1,1,1.14,1,1,0,0,1-1,1.15h-9.55c-.22,0-.28.06-.28.28v6.39c0,.22.06.28.28.28h8.24a1,1,0,0,1,1,1.14,1,1,0,0,1-1,1.15h-8.24c-.22,0-.28.06-.28.28Z"/><path d="M138.4,20.82c2.63,0,4.43-1.27,4.43-3.6,0-1.8-1.21-2.79-3.22-3.56l-3.16-1.21c-2.92-1.12-4.87-2.45-4.87-5.59,0-3.31,2.79-5.58,6.82-5.58a8.61,8.61,0,0,1,5.52,1.65,1.21,1.21,0,0,1,.49.86A1.3,1.3,0,0,1,143.27,5a1.23,1.23,0,0,1-.75-.28,6.67,6.67,0,0,0-4.12-1.18c-2.54,0-4.28,1.33-4.28,3.28,0,1.74,1.27,2.55,3.13,3.26l3.16,1.21c3.14,1.21,5,3,5,5.89,0,3.63-3.14,5.89-7,5.89a9.29,9.29,0,0,1-6.67-2.51,1.24,1.24,0,0,1-.4-.84,1.38,1.38,0,0,1,1.21-1.21,1,1,0,0,1,.77.35A7.4,7.4,0,0,0,138.4,20.82Z"/></g><g id="Layer_1-2" data-name="Layer 1"><path class="cls-1" d="M13.73,6.76a2.29,2.29,0,0,0,0,.35c0,.14.1.2.31.2h1.2a1,1,0,0,1,1.11,1.07,1.08,1.08,0,0,1-1.11,1.21H13.77c-.28,0-.42.24-.45.55l-.49,3.94a3,3,0,0,0,0,.38c0,.13.1.2.28.2h1.24a1,1,0,0,1,1.1,1,1.06,1.06,0,0,1-1.1,1.21H12.83c-.27,0-.41.24-.44.55l-.73,5.79c-.1.76-.45,1-1.14,1a1,1,0,0,1-1.1-1.14c0-.07,0-.59,0-.59l.66-5.07a3,3,0,0,0,0-.38c0-.14-.1-.2-.31-.2H5.52c-.28,0-.41.24-.45.55l-.72,5.79c-.11.76-.45,1-1.14,1A1,1,0,0,1,2.1,23.15c0-.07,0-.45,0-.45l.66-5.21a3,3,0,0,0,0-.38c0-.14-.1-.2-.31-.2H1.1a1,1,0,0,1-1.1-1,1.08,1.08,0,0,1,1.1-1.21H2.76c.28,0,.41-.24.45-.55l.52-3.93a3.22,3.22,0,0,0,0-.38c0-.14-.1-.21-.31-.21H2A1,1,0,0,1,.9,8.52,1.08,1.08,0,0,1,2,7.31H3.73c.27,0,.41-.24.44-.55L4.86,1A1.05,1.05,0,0,1,6,0,1,1,0,0,1,7.14,1.14C7.14,1.21,7,2,7,2L6.45,6.73a3,3,0,0,0,0,.38c0,.14.1.2.31.2H11c.28,0,.41-.24.45-.55L12.18,1a1,1,0,0,1,1.14-1,1,1,0,0,1,1.14,1.14c0,.07-.11.86-.11.86ZM11,10.18a3.22,3.22,0,0,0,0-.38c0-.14-.1-.21-.31-.21H6.45c-.27,0-.41.24-.45.55l-.51,3.94a2.27,2.27,0,0,0,0,.38c0,.13.1.2.31.2h4.31c.28,0,.42-.24.45-.55Z"/></g></g></svg>