<svg xmlns="http://www.w3.org/2000/svg" width="198" height="30" viewBox="0 0 198 30"><defs><linearGradient id="a" x1="-.824" x2="28.683" y1="26.826" y2="1.19" gradientTransform="scale(.93228 1.07264)" gradientUnits="userSpaceOnUse"><stop offset="25%" stop-color="#140757"/><stop offset="28.61%" stop-color="#270953"/><stop offset="42.66%" stop-color="#6D1042"/><stop offset="55.33%" stop-color="#A41535"/><stop offset="66.16%" stop-color="#CC192C"/><stop offset="74.74%" stop-color="#E41B26"/><stop offset="80%" stop-color="#ED1C24"/></linearGradient></defs><path d="M165.83 6.622l-3.624 5.268-3.66-5.268v6.805h1.098V9.84l2.562 3.805 2.562-3.805v3.586h1.062zm5.38.11c-1.904 0-3.44 1.536-3.44 3.402s1.536 3.403 3.44 3.403c1.903 0 3.44-1.537 3.44-3.403s-1.537-3.402-3.44-3.402m0 5.744c-1.281 0-2.306-1.061-2.306-2.342 0-1.317 1.025-2.341 2.306-2.341 1.28 0 2.305 1.06 2.305 2.341.037 1.317-1.024 2.342-2.305 2.342m5.38-5.854v6.805h1.061v-4.5l5.307 4.72v-6.77h-1.062v4.5zm13.468.256h-4.831v6.549h4.831v-.988h-3.77v-1.83h3.587v-.95h-3.587V7.866h3.77zm7.649 0h-1.171l-2.05 3-2.049-3h-1.171l2.708 3.988v2.56h1.061v-2.56zm-35.72 9.732h-3.404v6.549h3.477c1.208 0 2.086-.879 2.086-1.94 0-.768-.403-1.317-1.061-1.573.475-.22.805-.731.805-1.353 0-.952-.769-1.683-1.903-1.683zm-2.343 2.707v-1.756h2.123c.659 0 1.025.402 1.025.878s-.403.878-1.025.878zm0 2.89v-1.975h2.233c.695 0 1.134.439 1.134.988 0 .548-.439.987-1.134.987zm9.186-5.853l-3.806 6.805h1.208l.842-1.5h3.587l.841 1.5h1.208zm-1.28 4.39l1.28-2.342 1.282 2.342zm6.697-4.39v6.768h1.062v-4.463l5.307 4.719V16.61h-1.062v4.5zm14.493.256h-1.5l-3.294 3v-3h-1.098v6.512h1.098v-2.159l1.135-1.024 2.488 3.183h1.318l-3.038-3.915zM55.52 6.256l-9.222 12.256-9.223-12.256v16.83h3.294v-7.39l5.929 8.048 5.929-8.049v7.39h3.294zm11.236.293c-4.757 0-8.6 3.805-8.6 8.451 0 4.683 3.843 8.451 8.6 8.451 4.758 0 8.601-3.805 8.601-8.451 0-4.683-3.843-8.451-8.6-8.451m0 13.646c-2.855 0-5.161-2.341-5.161-5.195 0-2.89 2.306-5.195 5.16-5.195 2.855 0 5.16 2.341 5.16 5.195 0 2.89-2.305 5.195-5.16 5.195m10.76-13.939v16.83h3.294v-9.988l12.773 10.646V6.914H90.29v9.988zm31.804.659H96.84v16.17h12.48v-2.963h-9.076v-3.695h8.674v-2.89h-8.674V9.915h9.077zm18.044 0h-16.177v3h4.868v13.17h3.367V9.915h6.185zm3.88-.659l-9.626 16.866h3.733l1.757-3.11h8.344l1.757 3.11h3.733zm-2.672 11.085l2.635-4.719 2.672 4.72h-5.307zM148.665.402h1v29.195h-1z" fill="#140757"/><path d="M3.11 7.976L10.395 15l-7.283 7.024V7.976zM25.62.293L12.772 12.695.037.402v29.196L12.7 17.34 15.152 15l7.283-7.024v14.048l-4.904-4.72-2.38 2.306L25.73 29.854V.293z" fill="url(#a)"/></svg>