<?xml version="1.0" encoding="UTF-8"?><svg width="104" height="32" xmlns="http://www.w3.org/2000/svg"><path d="M.1447 22.789c-.024.6797-.024 1.4081-.024 2.0878.6737 0 1.4918-.0241 2.286-.0241h3.4406c.0241-.6556.0241-1.4081.0241-2.0881l-1.7807-.0486c.024-2.4035.0481-4.7584.0481-7.235l.1685-.0242c2.7672 4.176 5.4619 7.6962 7.05 9.6143a8.7862 8.7862 0 0 0 2.9358-.4612l.0962-13.305a.0968.0968 0 0 1 .0963-.1213l1.0588-.0727c.024-.6798.024-1.4084.024-2.0636-.7219 0-1.7085.024-2.5507.024H9.8895c-.024.6312-.048 1.4082-.048 2.0637l1.7565.0486c.024 2.8164.024 5.657.0722 8.4248h-.1444c-2.045-3.2293-5.0529-7.8906-6.8817-10.537h-4.62c-.0242.6556-.0242 1.3839-.0242 2.0636l1.3957.0486.024 11.435c0 .0727-.024.0965-.0722.0965l-1.2028.0734.0001.0005zm20.09-14.446c-1.1658-.0563-2.1567.8456-2.2138 2.015.012 1.1607.9364 2.1044 2.0931 2.1367a2.1803 2.1803 0 0 0 1.593-.6114c.4264-.412.6678-.98.669-1.574.0003-1.0208-.7457-1.9676-2.1414-1.9676v.0012l.0001.0001zm-1.7325 8.3762v5.9724a.1235.1235 0 0 1-.0963.1213l-1.2753.0486c-.024.6312-.024 1.3598-.024 2.015.9866 0 2.2616-.0241 3.2725-.0241h3.3207v-2.015l-1.3235-.0486c0-2.428.0481-6.1668.0722-8.7888 0-.0486 0-.073-.0482-.073-.1925 0-4.0904.5583-5.39.6555-.0241.6556-.0482 1.4084-.0482 2.0636l1.54.073.0001.0001zm6.3526 3.5444c0 2.9864 2.2619 4.8315 5.2216 4.8315a10.4965 10.4965 0 0 0 4.4513-1.1908c-.0963-.5829-.2888-1.3112-.4572-1.9423a8.142 8.142 0 0 1-2.7913.6556c-.4812 0-1.203-.0966-1.6122-.5829-.4331-.5098-.746-1.1654-.746-2.3308 0-1.0923.1204-1.8206.4813-2.452a1.4499 1.4499 0 0 1 1.3475-.7525c.9625 0 2.1894.607 2.5025.7283.4813-.2671 1.2272-1.9668 1.2272-2.7192-.5775-.3399-1.8047-.5829-2.6707-.5829-4.2604 0-6.9554 2.8893-6.9554 6.3368l.0013.0012h.0001zm10.538-.17c0 3.4235 2.4303 5.0015 5.6307 5.0015a13.5837 13.5837 0 0 0 4.6919-1.141c-.0963-.607-.2888-1.3838-.4572-2.015a12.0347 12.0347 0 0 1-3.3929.6798c-.6253 0-1.2513-.0486-1.8044-.5829a2.291 2.291 0 0 1-.6497-1.577c2.1416 0 4.6201 0 5.2454-.0727.1925-.0244 1.2753-1.0685 1.2994-1.4325a5.7082 5.7082 0 0 0-1.2272-3.7388c-.6497-.7528-1.7807-1.2874-3.2725-1.2874-3.6104-.002-6.0648 2.7173-6.0648 6.1648l.0013.0013zm5.6047-4.1278a1.1816 1.1816 0 0 1 1.0825.7283c.1818.4806.2716.9913.2647 1.5052a.2206.2206 0 0 1-.0441.1859.2192.2192 0 0 1-.1725.0812c-.6975.0242-1.8766.0486-2.7188.0486a3.1344 3.1344 0 0 1 .4332-1.9182 1.2305 1.2305 0 0 1 1.155-.6311zm6.4713 8.91c1.0106 0 2.3582-.024 3.4166-.024h3.6335c.0481-.6557.0481-1.3354.0481-1.991l-1.9732-.0727v-1.3353a5.2032 5.2032 0 0 1 .361-2.0395 5.039 5.039 0 0 1 1.2513-1.6736.9925.9925 0 0 1 .6978-.2185 7.3061 7.3061 0 0 1 1.516.2426c.4591-.4142 1.1329-2.3813 1.1329-3.5225a5.501 5.501 0 0 0-1.7325-.3157c-1.2031 0-1.7566.3157-3.2485 3.1807l-.1444-.0244c-.0722-1.044-.1684-2.0636-.2406-3.1077 0-.0486-.024-.0486-.0481-.0486-.1204 0-3.7054.51-4.7882.6314-.0241.6311-.0482 1.3353-.0482 1.991l1.4197.0726v6.1182a.1019.1019 0 0 1-.0962.0966l-1.131.0486c-.0254.6073-.0254 1.336-.0254 1.9912l-.0006.0006zm10.588-4.7828c0 3.4234 2.4303 5.0014 5.6304 5.0014a13.5846 13.5846 0 0 0 4.6923-1.141c-.0963-.607-.2887-1.3838-.4572-2.015a12.0347 12.0347 0 0 1-3.3929.6798c-.6256 0-1.2513-.0486-1.8047-.5829a2.2923 2.2923 0 0 1-.6494-1.577c2.1413 0 4.6201 0 5.2454-.0727.1925-.0244 1.2753-1.0685 1.2994-1.4325a5.7082 5.7082 0 0 0-1.2272-3.7388c-.6497-.7528-1.7807-1.2874-3.2725-1.2874-3.6097-.0013-6.0642 2.718-6.0642 6.1655l.0007.0007-.0001-.0001zm5.6057-4.1273c.4738.003.9.2897 1.0828.7283.1818.4806.2716.9913.2647 1.5052a.2206.2206 0 0 1-.0441.1859.2192.2192 0 0 1-.1725.0812c-.6978.0242-1.8769.0486-2.7188.0486a3.1344 3.1344 0 0 1 .4332-1.9182 1.2299 1.2299 0 0 1 1.1547-.6311zm6.2066 14.64c.9385-.0242 2.2138-.0242 3.1763-.0242 1.275-.0241 2.7188-.0241 3.8738-.0241.024-.6315.0481-1.3353.0481-2.0154l-1.9732-.0486c0-1.2381 0-2.4762-.024-3.6902l.1684-.0486a5.5115 5.5115 0 0 0 2.1175.3399 4.9868 4.9868 0 0 0 2.5747-.777 6.1221 6.1221 0 0 0 1.8525-2.3549 8.0071 8.0071 0 0 0 .7219-3.2535c.024-2.5248-1.66-4.807-3.6576-4.7829-.9866 0-1.2753.0731-3.7057 1.384l-.1444-.0242c-.0962-.437-.1684-.8983-.2647-1.3353 0-.0486 0-.0486-.0481-.0486-.1203 0-3.7538.6311-4.9088.7525-.024.6314-.0481 1.3356-.0481 1.9909l1.54.0486-.024 11.702a.1303.1303 0 0 1-.0963.1213l-1.155.0965c-.0235.6312-.0235 1.3353-.0235 1.9906v.0007l.0002.0005zm8.4217-10.975c0 1.2874-.2166 2.1364-.5534 2.6465a1.42 1.42 0 0 1-1.2272.6311c-.5054 0-1.4678-.3643-1.4678-.8497 0-1.3598.024-3.2776.048-4.6374a3.9357 3.9357 0 0 1 1.877-.6797c.4065.0338.7685.2712.9625.6311.2166.3406.361 1.1171.361 2.2584v-.0003h-.0001zm5.22 5.244c1.0106 0 2.2856-.024 3.2963-.024h3.3447c.024-.6312.024-1.3354.024-1.991l-1.3955-.0727c.024-4.5157.0962-10.804.0962-14.834 0-.0727-.024-.0966-.0722-.0966-.2406 0-4.1626.5098-5.4863.6556-.024.6312-.0481 1.3595-.0481 2.0395l1.6363.0728v12.066a.089.089 0 0 1-.0963.0965l-1.2753.0728c.0004.6314-.0237 1.36-.0237 2.0154v-.0004l-.0001.0002zm19.513-8.6674c.024-.6553.0481-1.4081.0481-2.0392h-4.7882c-.024.6311-.024 1.3839-.0481 2.0636l.8422.0486a.0968.0968 0 0 1 .0963.1213c-.2407 1.044-.4091 1.8451-.6016 2.6948a39.148 39.148 0 0 1-.722 2.5493h-.1683c-.337-1.044-.6497-1.9178-.9385-2.8406-.385-1.214-.6256-2.015-.77-2.5248l1.1069-.0486c.024-.6556.024-1.4081.024-2.0636H90.824c-.0241.6311-.0482 1.3839-.0482 2.0636l.9144.0486c.0532.011.098.047.1203.0966.385 1.0199.9382 2.5007 1.5156 4.0552.6978 1.7724 1.2753 3.2049 2.0213 5.0745-.361.8982-1.0347 1.6266-1.7807 2.3308a9.7244 9.7244 0 0 1-1.7325 1.2623c0 .6314 2.0931 2.0395 2.8875 2.0395.5775-.34 1.2272-1.2874 1.8528-2.2822 1.2753-2.015 2.9116-5.8996 3.5613-7.4294.722-1.7965 1.6844-4.2972 2.0213-5.1713l.8666-.049h.0001zm-5.761-10.297c-.3792.0357.4492 2.433-1.2452 1.9352-.841-.4725-5.7225-3.1968-5.7225-3.1968s-1.1415-.6476 0-1.3163c1.1415-.6688 5.768-3.2441 5.768-3.2441s.8505-.432 1.0989.6115V1.969s3.1542.7231 4.4863 2.446c1.8519 2.3906 1.4194 5.4513 1.4194 5.4513 0 .0006-1.3761-4.2544-5.8049-3.9561z" fill="#323A45" fill-rule="nonzero"/></svg>
